<svg width="700" height="99" viewBox="0 0 700 99" xmlns="http://www.w3.org/2000/svg"><title>dhl-logo</title><g fill="#D40511" fill-rule="nonzero"><path d="M0 78.6923h94.3534l-5.1002 6.89H0zM0 65.6376h104.1897l-5.1002 6.89H0zM0 91.747h84.8817l-5.1002 6.8906H0z"/><g><path d="M699.4536 85.5823h-94.3533l5.1002-6.89h89.2531zM699.4536 98.6376H595.628l5.1001-6.8906h98.7255zM620.0355 65.6376h79.4181v6.89H614.572z"/></g><g><path d="M91.4393 98.6376l44.8082-60.5607h55.738c6.193 0 6.193 2.1761 2.9141 6.5277-2.914 3.9885-8.379 11.2416-11.293 15.2307C182.1492 62.0114 179.235 66 188.7067 66h74.6814c-6.1936 8.3407-26.2296 33-62.6596 33-29.1437-.3624-109.2892-.3624-109.2892-.3624zM348.6338 65.6376l-24.4076 33h-64.117l24.4083-33zM441.5291 65.6376l-24.4075 33h-64.1163l24.4075-33zM462.2952 65.6376s-4.7355 6.5277-6.9216 9.4285c-8.0137 10.8792-1.092 23.5715 25.5009 23.5715h103.097l24.4076-33H462.295z"/></g><g><path d="M122.7684 0l-22.2221 30.0992h121.6756c6.193 0 6.193 2.176 2.9142 6.5276-2.9142 3.9886-8.0143 11.2416-11.2938 15.5932-1.4567 2.176-4.3708 6.1646 5.1002 6.1646h49.9091s8.0143-10.8792 14.5719-19.9453c9.107-12.33.7287-38.077-32.0585-38.077C222.5866 0 122.7684 0 122.7684 0zM446.9946 58.0222h-157.013L332.9693 0h64.1163l-24.7722 33.3624h28.7797L425.8652 0h64.1157zM578.8707 0l-42.987 58.0222H467.76L510.747 0z"/></g></g></svg>